<svg xmlns="http://www.w3.org/2000/svg" viewBox="0 0 128 128">
  <rect width="128" height="128" fill="#7952B3"/>
  <path fill="#FFFFFF" d="M82.912 50.4c0-4.784-3.184-7.328-8.336-7.328h-16.6v15.04h15.04c6.192 0 9.896-2.928 9.896-7.712zm-2.992 24.016c0-5.056-3.824-7.76-10.12-7.76h-17.368v16.08H69.84c6.528.048 10.08-2.976 10.08-8.32zM25.6 9.6v108.8c0 6.016 3.696 10.4 11.6 10.4h54.4c8.352 0 12.4-3.84 12.4-10.4V94.4c0-3.92-2.256-5.552-5.952-5.552-3.888 0-6.048 1.776-6.048 5.6v23.552H36.32V20.048h47.52V43.6c0 4.416 2.112 6.48 6 6.48s6-2.064 6-6.48V12.8c0-8.032-4.8-11.2-12.48-11.2H36.96C29.648 1.6 25.6 4.8 25.6 9.6z"/>
</svg>
