<svg xmlns="http://www.w3.org/2000/svg" viewBox="0 0 128 128">
  <rect width="128" height="128" fill="#4CAF50"/>
  <path fill="#FFFFFF" d="M64 16c-26.4 0-48 7.2-48 16v64c0 8.8 21.6 16 48 16s48-7.2 48-16V32c0-8.8-21.6-16-48-16zm0 8c22.08 0 40 5.36 40 8s-17.92 8-40 8-40-5.36-40-8 17.92-8 40-8zm40 52.8c0 2.64-17.92 8-40 8s-40-5.36-40-8v-9.6c8.48 4.32 23.36 7.6 40 7.6s31.52-3.28 40-7.6v9.6zm0-18.4c0 2.64-17.92 8-40 8s-40-5.36-40-8v-9.6c8.48 4.32 23.36 7.6 40 7.6s31.52-3.28 40-7.6v9.6zm0-18.4c0 2.64-17.92 8-40 8s-40-5.36-40-8v-9.6c8.48 4.32 23.36 7.6 40 7.6s31.52-3.28 40-7.6v9.6z"/>
</svg>
